<svg id="Layer_1" data-name="Layer 1" xmlns="http://www.w3.org/2000/svg" viewBox="0 0 482.63 99.03"><defs><style>.cls-1{fill:#e00837;}</style></defs><title>PensPlace</title><path class="cls-1" d="M88.75,35a13.09,13.09,0,0,1-1,4.94,24.82,24.82,0,0,0-1.41,4.87c-1.08,1.41-2.09,2.88-3,4.39s-1.9,3-2.88,4.54-2,3-3.11,4.35a23.14,23.14,0,0,1-3.7,3.77.42.42,0,0,1,.08.29.79.79,0,0,1-.41.7c-.27.17-.36.38-.26.62l-3.62,3.73a27.14,27.14,0,0,0-3.25,4.1A6.28,6.28,0,0,0,63.53,74a1,1,0,0,0-.66.18,2.48,2.48,0,0,1-.59.33q-2.37,2.85-5,5.42a45.86,45.86,0,0,1-5.54,4.68A25.62,25.62,0,0,1,49.56,86c-.74.44-1.46.91-2.15,1.4a9.94,9.94,0,0,0-1.29,1c-.42.39-.85.76-1.29,1.1a29.72,29.72,0,0,1-4.22,3,13.91,13.91,0,0,1-4.88,1.64A6.58,6.58,0,0,0,35.51,96v1.76c0,.58,0,1.18-.07,1.79a4.35,4.35,0,0,1-.52,1.72v.22a3,3,0,0,0,.37,1.43,3,3,0,0,1,.37,1.42,1.07,1.07,0,0,1-.52.88h1.92a2.62,2.62,0,0,0,.63,1.76,2.1,2.1,0,0,1,.63,1.1,16.47,16.47,0,0,1-.26,2.74,2.44,2.44,0,0,1-1.52,2v.44a6.74,6.74,0,0,1-.14,1.43,3.29,3.29,0,0,1-.67,1.35c-.29,0-.58,0-.85,0s-.53,0-.78,0a10.52,10.52,0,0,1-5.54-1.47,14.66,14.66,0,0,1-1.07-3.91,30.64,30.64,0,0,1-.26-4.06,53,53,0,0,1,.59-8c.39-2.64.71-5.27,1-7.91l1.11-2.12a39.68,39.68,0,0,1,.52-4.14c.24-1.39.49-2.76.74-4.13s.45-2.73.63-4.1A25.58,25.58,0,0,0,32,72.2a10.79,10.79,0,0,0,.85-2.63,15,15,0,0,0,.26-2.71c0-.49,0-1-.07-1.47A3.55,3.55,0,0,0,32.55,64a1.38,1.38,0,0,0,.59-.73,2.54,2.54,0,0,1,.45-.8c.14-1.91.27-3.8.37-5.68s.14-3.74.14-5.6c0-1,0-2-.07-3s-.12-2-.22-3c-.05-.39-.14-.85-.26-1.39a6.16,6.16,0,0,1-.18-1.25,9.89,9.89,0,0,1,.07-1.2A10.75,10.75,0,0,0,33.51,40a7.46,7.46,0,0,0-.14-1.43,4,4,0,0,0-.52-1.28A25.86,25.86,0,0,0,26.49,40c-1.88,1.15-3.77,2.43-5.7,3.85-.78.53-1.65,1.17-2.58,1.9a14.13,14.13,0,0,1-2.67,1.68,1.12,1.12,0,0,1-.55.18,4.16,4.16,0,0,1-.55,0A9.41,9.41,0,0,1,13,47.57a8.62,8.62,0,0,0-1.33-.11,7.68,7.68,0,0,0-2.44-1.61A7.61,7.61,0,0,1,9,44a10.72,10.72,0,0,1,.19-2,11.33,11.33,0,0,1,.55-1.9l1.89-.66a15.7,15.7,0,0,0,1.92-.84,8.94,8.94,0,0,0,1.67-1.1,4.58,4.58,0,0,0,1.18-1.57,1.9,1.9,0,0,0,.81.22,2.73,2.73,0,0,0,.67-.08l.66-.14c.89-.54,1.79-1.1,2.7-1.69a16.66,16.66,0,0,1,2.85-1.46c.29-.1.47-.22.52-.37a1.77,1.77,0,0,0,0-.66c1.13-.34,2.31-.74,3.55-1.2a8.79,8.79,0,0,0,3.1-1.94h1.33a11,11,0,0,1,2.37-1.32q1.26-.51,2.55-1c.86-.31,1.71-.66,2.55-1a10.68,10.68,0,0,0,2.37-1.43,2.36,2.36,0,0,1,.74-.15,2.59,2.59,0,0,1,.81.15,4.88,4.88,0,0,0,1.26-.88l1.18-1.17a9.39,9.39,0,0,0,2.14-.22A12.44,12.44,0,0,0,50.37,21a17.45,17.45,0,0,0,1.74-.85c.57-.31,1.19-.64,1.89-1a2,2,0,0,1,.66.32,1.13,1.13,0,0,0,.74.19A5.57,5.57,0,0,1,57,18.88a14.63,14.63,0,0,1,1.74-.4c.59-.1,1.17-.22,1.74-.37a3.68,3.68,0,0,0,1.51-.8c1.58,0,3.17,0,4.77-.11s3.19-.11,4.77-.11a48,48,0,0,1,6.91.51,14,14,0,0,1,6.33,2.56,12.18,12.18,0,0,0,3.18,4.47c.09.53.21,1,.33,1.5a8.35,8.35,0,0,0,.48,1.35,5.53,5.53,0,0,0-.52,2.42,13.23,13.23,0,0,0,.26,2.59A13,13,0,0,1,88.75,35ZM81.87,33.2a4.41,4.41,0,0,1-.48-1.5,8.35,8.35,0,0,1,0-1.65,4.75,4.75,0,0,1-1.47-1.91,3.81,3.81,0,0,0-1.48-1.76,4.69,4.69,0,0,0-1.89-.44,9.48,9.48,0,0,1-2-.29,3.7,3.7,0,0,1-1.3-.59,2.21,2.21,0,0,0-1.36-.29A8.88,8.88,0,0,0,70,25a8.2,8.2,0,0,1-1.77.19,3.4,3.4,0,0,1-1.41-.3,3.51,3.51,0,0,0-1.4-.29,2.48,2.48,0,0,0-1.52.52,1.94,1.94,0,0,1-1.66.29c-.3.24-.46.44-.48.59a1.14,1.14,0,0,1-.11.33.46.46,0,0,1-.37.11h-1a11.89,11.89,0,0,0-3.14.44,7.77,7.77,0,0,0-2.85,1.48,2.52,2.52,0,0,0-.41-.11,1.64,1.64,0,0,0-.4,0,4.64,4.64,0,0,0-2.41.7,4.75,4.75,0,0,1-2.55.7A6.36,6.36,0,0,1,46.38,31c-.84.35-1.69.68-2.55,1a17.1,17.1,0,0,0-2.4,1.1,4.27,4.27,0,0,0-1.71,1.81c0,.39.08.64.37.73a.69.69,0,0,1,.45.74,4.93,4.93,0,0,1-.19,1.24A6.14,6.14,0,0,0,40.17,39a14.45,14.45,0,0,0,.37,3.3l.74,3.29a1.19,1.19,0,0,0-.52.66,1.19,1.19,0,0,1-.52.66,19.61,19.61,0,0,1,1,6.29,22.72,22.72,0,0,1-.56,5,35.81,35.81,0,0,0-.77,5v.07a.58.58,0,0,0,.29.59.52.52,0,0,1,.3.51.81.81,0,0,1-.08.37c-.54,3.32-1.07,6.63-1.59,10s-.95,6.66-1.29,10h.59a5.58,5.58,0,0,0,3.44-1.14,12.45,12.45,0,0,0,2.55-2.52h1.18q5.32-4.62,10.25-9.53a119,119,0,0,0,9.35-10.55,1,1,0,0,0,.81-.3,1.43,1.43,0,0,1,.74-.44c1-1.41,2.12-2.82,3.26-4.21a43.16,43.16,0,0,1,3.69-4,3.35,3.35,0,0,1,.41-1.32,10.87,10.87,0,0,1,.7-1.1,8.06,8.06,0,0,0,.67-1.1,3.16,3.16,0,0,0,.29-1.39l.82-.33a2.84,2.84,0,0,0,.81-.55A3.84,3.84,0,0,1,77.66,45,2.47,2.47,0,0,0,78,43.68a2.31,2.31,0,0,0-.15-.73,3.93,3.93,0,0,0,1.85-1.69,10.53,10.53,0,0,0,1-2.6,23.57,23.57,0,0,0,.56-2.9A13.61,13.61,0,0,1,81.87,33.2Z" transform="translate(-8.96 -17.09)"/><path class="cls-1" d="M131.27,54.71V55a.68.68,0,0,0-.52.73,7.68,7.68,0,0,1-1.7.55,8.24,8.24,0,0,0-1.7.55c-.55,0-1.1-.08-1.67-.11s-1.12,0-1.66,0q-2.22,0-4.44.15a32.75,32.75,0,0,1-4.43,0,9.65,9.65,0,0,1-2.26.92,9.32,9.32,0,0,1-2.33.32,4.83,4.83,0,0,1-1.55-.22,21.69,21.69,0,0,1-3.88,1.47c-1.41.39-2.82.77-4.25,1.13s-2.8.78-4.11,1.25a11,11,0,0,0-3.44,1.94c-.1.68-.17,1.35-.22,2S93,67,93,67.59a14.09,14.09,0,0,0,.11,1.9,6.42,6.42,0,0,0,.48,1.76,3.9,3.9,0,0,0,.85.22,5.48,5.48,0,0,0,.85.07,2.37,2.37,0,0,0,.74-.11.76.76,0,0,0,.52-.47,12.71,12.71,0,0,1,2.22-.11c.73,0,1.47,0,2.21,0s1.47,0,2.19-.07a10.05,10.05,0,0,0,2.1-.37,13.87,13.87,0,0,1,2.33-.36l2.26-.15c.74-.05,1.5-.13,2.29-.25a9.4,9.4,0,0,0,2.44-.77,5.53,5.53,0,0,0,2,.36,12.74,12.74,0,0,1,2,.15,3.85,3.85,0,0,1,.85.8,1.69,1.69,0,0,1,.33,1,3.51,3.51,0,0,1-.74,2,14.2,14.2,0,0,0-1.18,1.9H117a12.32,12.32,0,0,0-3.44.48c-1.11.32-2.22.68-3.33,1.1s-2.22.78-3.33,1.09a12.32,12.32,0,0,1-3.44.48q-.28,0-.33.33a.76.76,0,0,1-.18.47,7.31,7.31,0,0,0-1.11-.07,13.86,13.86,0,0,0-3.26.37,14,14,0,0,1-3.18.36c-.29,0-.59,0-.88,0s-.59-.06-.89-.11a1.79,1.79,0,0,1-1,.77,2.92,2.92,0,0,0-1.11.62,5.53,5.53,0,0,0-.26,1.61c0,.63,0,1.28-.07,1.94A15,15,0,0,1,91,86.47a2.74,2.74,0,0,1-.59,1.39c0,.25.25.33.59.26s.52.09.52.48A6.94,6.94,0,0,1,91.41,90a7.24,7.24,0,0,0-.15,1.46,14.88,14.88,0,0,0,.34,3,11.84,11.84,0,0,0,1,3,6.74,6.74,0,0,0,1.89,2.3,4.66,4.66,0,0,0,3,.92,5.67,5.67,0,0,0,2.22-.44,3.76,3.76,0,0,0,1.7-1.47l.37-.07a2.52,2.52,0,0,1,.56.07,1.92,1.92,0,0,0,.55.08,2.13,2.13,0,0,0,1.15-.55c.47-.37,1-.79,1.55-1.28s1.15-1,1.74-1.43a6.48,6.48,0,0,1,1.7-1c.34-.68.68-1.36,1-2A3.68,3.68,0,0,1,111.45,91V88.89A11.52,11.52,0,0,1,113,87.43a4.1,4.1,0,0,0,1.29-1.69A4.4,4.4,0,0,0,115,86a3.14,3.14,0,0,0,.7.07,4.24,4.24,0,0,0,.77-.07,3.9,3.9,0,0,0,.78-.22,6.68,6.68,0,0,1,.93,1.8,9.49,9.49,0,0,0,.85,1.86q-.67,1.32-1.56,3.15t-1.92,3.66c-.69,1.22-1.42,2.38-2.18,3.48a12,12,0,0,1-2.26,2.52,2.82,2.82,0,0,1-1,.51c-.54.39-1,.77-1.48,1.14a8.45,8.45,0,0,0-1.25,1.28,21.25,21.25,0,0,0-4.11,1.75c-1.3.74-2.6,1.44-3.88,2.13a7.78,7.78,0,0,0-1.92-.22,13.4,13.4,0,0,0-1.78.11,16.3,16.3,0,0,1-1.92.11,1.36,1.36,0,0,0-.85-.48c-.37-.07-.51-.33-.41-.77a7.18,7.18,0,0,1-4.06-1.35,10.91,10.91,0,0,1-2.63-3,18.27,18.27,0,0,1-1.74-3.8c-.44-1.37-.91-2.68-1.4-4v-.22a.39.39,0,0,1,.3-.44.4.4,0,0,0,.29-.44.29.29,0,0,0-.07-.22c-.15-.54-.27-1-.37-1.39a5.69,5.69,0,0,1-.15-1.39,17.69,17.69,0,0,1,.15-2.31,17.42,17.42,0,0,0,.15-2.3,6.33,6.33,0,0,0-.3-2,2.86,2.86,0,0,0,.48-1,7.85,7.85,0,0,0,.26-1.28c0-.44.08-.88.11-1.32a5.53,5.53,0,0,1,.18-1.17l-.51-1.43a4.4,4.4,0,0,1-.22-1.5v-.51a17.29,17.29,0,0,0,1.25-2.56c.35-.88.72-1.78,1.11-2.71v-.22c0-1.42,0-2.83-.15-4.25s-.14-2.83-.14-4.24V61.37A12.31,12.31,0,0,1,85.2,60a2.13,2.13,0,0,0,.89-.81,2,2,0,0,1,.88-.8h2.44l.45-.73a2.31,2.31,0,0,0,.29-.81,7.71,7.71,0,0,0,1.59-.62c.52-.27,1-.55,1.45-.84.69-.39,1.31-.75,1.88-1.06a13.11,13.11,0,0,1,1.7-.81A13.67,13.67,0,0,1,98.58,53a20.47,20.47,0,0,1,2.22-.37,1.05,1.05,0,0,0,.78-.21,4.09,4.09,0,0,1,.55-.52c.59.1,1.19.19,1.78.26a15,15,0,0,0,1.77.11,8.42,8.42,0,0,0,3.33-.66c1.48,0,2.94,0,4.4-.07s2.92-.08,4.4-.08q1.92,0,3.84.15a33.37,33.37,0,0,1,3.78.51,4.83,4.83,0,0,1,1.47-.22,9.54,9.54,0,0,1,1.82.19,5,5,0,0,0,1.81,0,3.2,3.2,0,0,0,.4,1.36A2.33,2.33,0,0,1,131.27,54.71Z" transform="translate(-8.96 -17.09)"/><path class="cls-1" d="M176.37,53.17a7,7,0,0,1-.4,1.5,3.18,3.18,0,0,0-.12,1.65,1.87,1.87,0,0,0-1.14.47,3.81,3.81,0,0,0-.67.92c-.17.34-.34.69-.51,1.06a4.92,4.92,0,0,1-.63,1,28.15,28.15,0,0,1,.66,5.34c.05,1.81.17,3.59.37,5.34a54,54,0,0,0,1.15,6.63,28.32,28.32,0,0,1,.77,6.62c0,.69,0,1.32,0,1.91s0,1.19,0,1.83c0,.39,0,.79,0,1.2s0,.82,0,1.21a16.75,16.75,0,0,1-.55,4.25,37.43,37.43,0,0,0-.85,4.24,9.33,9.33,0,0,0-1.52,1.76,20.89,20.89,0,0,1-1.29,1.75,7.55,7.55,0,0,1-1.55,1.43,5.16,5.16,0,0,1-2.22.84,1.83,1.83,0,0,1-.85,1.1,3.28,3.28,0,0,0-1.07,1h-.15a8.9,8.9,0,0,1-3.18-.52,17.72,17.72,0,0,1-2.48-1.17c-.76-.44-1.54-.9-2.33-1.39a10.6,10.6,0,0,0-2.73-1.17,27.48,27.48,0,0,1-3.77-3.7,24.06,24.06,0,0,0-3.85-3.62,7,7,0,0,0-1.37-2.41,19.41,19.41,0,0,1-1.66-2.2,5.19,5.19,0,0,1-.56-1c-.12-.29-.28-.63-.48-1a1.34,1.34,0,0,0-.7-.8,4.67,4.67,0,0,1-.85-.51,16.3,16.3,0,0,0-1.7-4.18,26.82,26.82,0,0,0-2.59-3.66,8.62,8.62,0,0,0-.7,1.72q-.25.93-.48,1.83a14.84,14.84,0,0,1-.56,1.83A6.59,6.59,0,0,1,135,86v.22a.39.39,0,0,0,.3.44.4.4,0,0,1,.3.44.42.42,0,0,1,0,.15.23.23,0,0,0,0,.14,1.79,1.79,0,0,0-.55.73.89.89,0,0,1-.78.52,3.54,3.54,0,0,1,.07.73V90a19.15,19.15,0,0,1-.48,4.24,19.59,19.59,0,0,0-.48,4.32v1a5.61,5.61,0,0,0,.08,1,3.45,3.45,0,0,0,.44.88,1.48,1.48,0,0,1,.3.81,1.31,1.31,0,0,1-.45,1c.35.24.74.51,1.19.8a9.09,9.09,0,0,1,1.22,1,6.22,6.22,0,0,1,.92,1.17,2.6,2.6,0,0,1,.37,1.36,1.9,1.9,0,0,1-.81,1.75,7.17,7.17,0,0,1-2,.81c-.77.19-1.56.38-2.37.55a4.68,4.68,0,0,0-2,.91h-.22a1.68,1.68,0,0,1-1.34-.51,1.65,1.65,0,0,0-1.33-.51,14.77,14.77,0,0,1-1.92-5.09,30.27,30.27,0,0,1-.52-5.38,36.14,36.14,0,0,1,.56-6.29c.37-2.1.81-4.18,1.33-6.22s1.08-4.09,1.7-6.12,1.19-4.06,1.74-6.11l.07-.22a.63.63,0,0,0-.18-.51.51.51,0,0,1-.19-.44c0-.1,0-.15.08-.15a14.18,14.18,0,0,1,.48-1.39,8.14,8.14,0,0,0,.4-1.46,32.1,32.1,0,0,0,.63-4.21c.12-1.44.2-2.86.22-4.28s.08-2.84.15-4.28A35.92,35.92,0,0,1,132.3,54a12,12,0,0,0,1.11-1.25,5.25,5.25,0,0,1,1.33-1.17,15.92,15.92,0,0,1,3,.44,9.85,9.85,0,0,1,2.81,1.17,37.85,37.85,0,0,1,1.22,6.3,42.28,42.28,0,0,0,1.15,6.29V66c0,.24.13.35.4.33a.66.66,0,0,1,.63.25,1.11,1.11,0,0,0-.18.52,3.77,3.77,0,0,0,0,.58v1.25c.1.39.22.8.37,1.24a1.19,1.19,0,0,0,1,.81,22.43,22.43,0,0,0,1.11,4.31,32.68,32.68,0,0,0,1.7,3.81c.64,1.22,1.33,2.43,2.07,3.62s1.5,2.46,2.29,3.77a15.5,15.5,0,0,1,3.18,3.19q1.33,1.78,2.7,3.44A16.4,16.4,0,0,0,161.18,96a9.36,9.36,0,0,0,4.54,1.54,1.57,1.57,0,0,0,.52-.81l.37-1a7.16,7.16,0,0,1,.48-.92,1.64,1.64,0,0,1,.78-.62q.15-2.05.33-4.17a14.19,14.19,0,0,1,.93-4,3.2,3.2,0,0,1-.37-1.61,7.75,7.75,0,0,1,.11-1.39,8.4,8.4,0,0,0,.11-1.32,4,4,0,0,0-.59-2.27,7.86,7.86,0,0,1,.07-1.06,2.43,2.43,0,0,1,.44-1.06,17.91,17.91,0,0,1-.92-3.07,16.42,16.42,0,0,1-.33-3.3,9.15,9.15,0,0,1,.22-2,9.27,9.27,0,0,1-.59-2.56l-.3-3a25.12,25.12,0,0,0-.44-2.85,4.2,4.2,0,0,0-1.11-2.12,2.73,2.73,0,0,0,.44-1.54,8.8,8.8,0,0,0-.44-2.78,8.56,8.56,0,0,1-.44-2.78,5,5,0,0,1,.44-2.05,29,29,0,0,1,3.22.33,19.73,19.73,0,0,0,3.14.25,3.91,3.91,0,0,0,1,1q.6.36,1.26.69c.44.22.88.45,1.29.7A2.58,2.58,0,0,1,176.37,53.17Z" transform="translate(-8.96 -17.09)"/><path class="cls-1" d="M222.88,92a3.71,3.71,0,0,1-.63,2.16,3.22,3.22,0,0,0-.48,2.23,5.21,5.21,0,0,0-1.7,1.53c-.44.64-.86,1.3-1.25,2A49.24,49.24,0,0,1,208.35,105a34.85,34.85,0,0,1-11.5,1.94.88.88,0,0,1-.66-.33c-.2-.22-.4-.45-.59-.7s-.41-.47-.63-.69a1.07,1.07,0,0,0-.78-.33,1.32,1.32,0,0,0-.81.22.71.71,0,0,1,0-.26,1,1,0,0,0,0-.25,7.51,7.51,0,0,0-.22-1.8A7.43,7.43,0,0,1,193,101a3.34,3.34,0,0,1,.37-1.68h.89a9.76,9.76,0,0,0,1.44-.11,9,9,0,0,1,1.51-.11,2.55,2.55,0,0,1,1.48.44,24.58,24.58,0,0,0,7.73-1.51q3.66-1.35,7.43-2.67a3.54,3.54,0,0,0,.7-1.79,5.55,5.55,0,0,1,.56-1.87,18,18,0,0,0-3.88-2.52,8.34,8.34,0,0,0-4.55-.62,7.39,7.39,0,0,0-3.29-1.1c-1.16-.1-2.33-.25-3.51-.44l-.93-.18a4.09,4.09,0,0,0-1-.11,1.46,1.46,0,0,0-.7.18.39.39,0,0,0-.18.55,1.48,1.48,0,0,0-1-.7,1.88,1.88,0,0,1-1.07-.55,13.21,13.21,0,0,1-4.14-.84c-1.19-.46-2.49-1-3.92-1.57a7,7,0,0,0-1.15-.33,3.56,3.56,0,0,1-1.07-.4,5.93,5.93,0,0,1-2.15-1.76,9.38,9.38,0,0,1-1.29-2.45,15.31,15.31,0,0,1-.7-2.82c-.15-1-.3-1.88-.45-2.71A25.9,25.9,0,0,0,181.36,71a17.86,17.86,0,0,0,.93-2.64,6.14,6.14,0,0,1,.89-.36c.29-.1.61-.22,1-.37a.81.81,0,0,1-.08-.37,1.3,1.3,0,0,1,.26-.73.73.73,0,0,0,.11-.73c1.09-1,2.13-2,3.15-3a18.59,18.59,0,0,0,2.62-3.47,4.06,4.06,0,0,0,1.77-1.1c.45-.49.89-1,1.34-1.5a9.21,9.21,0,0,1,1.47-1.39,4.15,4.15,0,0,1,2.07-.77,2.44,2.44,0,0,1,.82-.84c.34-.22.69-.43,1-.63a6.56,6.56,0,0,0,1-.65,2.3,2.3,0,0,0,.66-1,5.37,5.37,0,0,0,2.18-.44c.67-.29,1.32-.61,2-.95s1.3-.66,2-1a5.41,5.41,0,0,1,2.18-.44,3.81,3.81,0,0,1,.59,0c.2,0,.42.06.67.11a2.62,2.62,0,0,1,.7,1.2,9.76,9.76,0,0,1,.26,1.5c0,.54.09,1.08.11,1.61a5.5,5.5,0,0,0,.26,1.47q-.66,1.24-1.44,2.49a5.24,5.24,0,0,1-2,1.9h-.14a1.31,1.31,0,0,1-1-.22,1.91,1.91,0,0,0-1-.29.78.78,0,0,0-.59.22l-.37.36a2.07,2.07,0,0,1-.41.3.92.92,0,0,1-.7,0c-.69.24-1,.65-.81,1.24a4.87,4.87,0,0,0-2.37.84,13.76,13.76,0,0,0-1.77,1.54c-.55.56-1.09,1.07-1.63,1.54a3.15,3.15,0,0,1-1.92.76,16.18,16.18,0,0,1-3.07,3.88,15.48,15.48,0,0,0-3,3.81,5,5,0,0,1,.3,1.24c0,.44.12.91.22,1.39A7.05,7.05,0,0,0,191.05,77c.62.44,1.22.88,1.81,1.32h.22a6.71,6.71,0,0,1,2.74.55,6.67,6.67,0,0,0,2.66.55,2.5,2.5,0,0,0,1.26-.3c1.28.3,2.55.54,3.81.74s2.52.34,3.8.44a14.24,14.24,0,0,0,2,.14,7.65,7.65,0,0,1,1.89.22,15.64,15.64,0,0,1,1.63.55c.54.22,1.08.45,1.62.7a27.62,27.62,0,0,1,3.22,1.61,12.61,12.61,0,0,1,2.7,2.08,9,9,0,0,1,1.85,2.78A9.33,9.33,0,0,1,222.88,92Z" transform="translate(-8.96 -17.09)"/><path class="cls-1" d="M300,35A13.1,13.1,0,0,1,299,40a24.79,24.79,0,0,0-1.4,4.87,50.35,50.35,0,0,0-3,4.39q-1.41,2.27-2.89,4.54c-1,1.51-2,3-3.1,4.35a23.56,23.56,0,0,1-3.7,3.77.42.42,0,0,1,.08.29.79.79,0,0,1-.41.7c-.27.17-.36.38-.26.62l-3.62,3.73a27.19,27.19,0,0,0-3.26,4.1A6.31,6.31,0,0,0,274.79,74a1,1,0,0,0-.66.18,2.37,2.37,0,0,1-.6.33c-1.57,1.9-3.23,3.71-4.95,5.42A46,46,0,0,1,263,84.57,25.49,25.49,0,0,1,260.82,86c-.74.44-1.46.91-2.15,1.4a9.94,9.94,0,0,0-1.29,1,16.81,16.81,0,0,1-1.3,1.1,29.66,29.66,0,0,1-4.21,3A13.91,13.91,0,0,1,247,94.23a6.58,6.58,0,0,0-.22,1.76v1.76c0,.58,0,1.18-.08,1.79a4.2,4.2,0,0,1-.52,1.72v.22a3.11,3.11,0,0,0,.37,1.43,2.92,2.92,0,0,1,.37,1.42,1.06,1.06,0,0,1-.51.88h1.92A2.62,2.62,0,0,0,249,107a2.1,2.1,0,0,1,.63,1.1,16.47,16.47,0,0,1-.26,2.74,2.46,2.46,0,0,1-1.52,2v.44a6.74,6.74,0,0,1-.15,1.43A3.39,3.39,0,0,1,247,116c-.3,0-.58,0-.85,0s-.53,0-.78,0a10.5,10.5,0,0,1-5.54-1.47,14.69,14.69,0,0,1-1.08-3.91,32.43,32.43,0,0,1-.26-4.06,53,53,0,0,1,.6-8c.39-2.64.71-5.27,1-7.91l1.11-2.12q.15-2.06.51-4.14c.25-1.39.5-2.76.74-4.13s.46-2.73.63-4.1a25.59,25.59,0,0,0,.19-4.1,11.24,11.24,0,0,0,.85-2.63,15,15,0,0,0,.26-2.71,14.48,14.48,0,0,0-.08-1.47,3.7,3.7,0,0,0-.44-1.39,1.43,1.43,0,0,0,.59-.73,2.72,2.72,0,0,1,.44-.8q.22-2.86.37-5.68c.1-1.87.15-3.74.15-5.6,0-1,0-2-.07-3s-.13-2-.22-3c0-.39-.14-.85-.26-1.39a5.65,5.65,0,0,1-.19-1.25,9.94,9.94,0,0,1,.08-1.2c0-.42.07-.84.07-1.28a6.74,6.74,0,0,0-.15-1.43,3.79,3.79,0,0,0-.52-1.28A26,26,0,0,0,237.75,40q-2.82,1.72-5.7,3.85c-.79.53-1.65,1.17-2.59,1.9a13.77,13.77,0,0,1-2.66,1.68,1.16,1.16,0,0,1-.55.18,4.18,4.18,0,0,1-.56,0,9.6,9.6,0,0,1-1.48-.11,8.42,8.42,0,0,0-1.33-.11,7.57,7.57,0,0,0-2.44-1.61,7.62,7.62,0,0,1-.22-1.9,9.92,9.92,0,0,1,.19-2,10.47,10.47,0,0,1,.55-1.9l1.89-.66a16.41,16.41,0,0,0,1.92-.84,8.54,8.54,0,0,0,1.66-1.1,4.6,4.6,0,0,0,1.19-1.57,1.9,1.9,0,0,0,.81.22,2.65,2.65,0,0,0,.66-.08l.67-.14c.89-.54,1.79-1.1,2.7-1.69a16.66,16.66,0,0,1,2.85-1.46c.29-.1.46-.22.51-.37a1.42,1.42,0,0,0,0-.66c1.14-.34,2.32-.74,3.55-1.2a8.84,8.84,0,0,0,3.11-1.94h1.33a11.2,11.2,0,0,1,2.36-1.32c.84-.34,1.69-.67,2.56-1s1.71-.66,2.55-1a10.85,10.85,0,0,0,2.36-1.43,2.47,2.47,0,0,1,.74-.15,2.6,2.6,0,0,1,.82.15,4.66,4.66,0,0,0,1.25-.88l1.19-1.17a9.45,9.45,0,0,0,2.14-.22,12.44,12.44,0,0,0,1.85-.58,17.45,17.45,0,0,0,1.74-.85c.56-.31,1.19-.64,1.88-1a2,2,0,0,1,.67.32,1.11,1.11,0,0,0,.74.19,5.57,5.57,0,0,1,1.59-.77,14,14,0,0,1,1.73-.4c.6-.1,1.18-.22,1.74-.37a3.72,3.72,0,0,0,1.52-.8c1.58,0,3.17,0,4.77-.11s3.19-.11,4.77-.11a48.09,48.09,0,0,1,6.91.51A13.91,13.91,0,0,1,296,20.16a12.18,12.18,0,0,0,3.18,4.47c.1.53.21,1,.34,1.5a8.35,8.35,0,0,0,.48,1.35,5.53,5.53,0,0,0-.52,2.42,12.51,12.51,0,0,0,.26,2.59A13,13,0,0,1,300,35Zm-6.88-1.82a4,4,0,0,1-.48-1.5,7.06,7.06,0,0,1,0-1.65,4.86,4.86,0,0,1-1.48-1.91,3.75,3.75,0,0,0-1.48-1.76,4.6,4.6,0,0,0-1.88-.44,9.48,9.48,0,0,1-2-.29,3.52,3.52,0,0,1-1.3-.59,2.25,2.25,0,0,0-1.37-.29,8.86,8.86,0,0,0-1.77.18,8.22,8.22,0,0,1-1.78.19,3.36,3.36,0,0,1-1.4-.3,3.56,3.56,0,0,0-1.41-.29,2.47,2.47,0,0,0-1.51.52,2,2,0,0,1-1.67.29,1.29,1.29,0,0,0-.48.59.75.75,0,0,1-.11.33c-.05.07-.17.11-.37.11h-1a11.78,11.78,0,0,0-3.14.44,7.69,7.69,0,0,0-2.85,1.48,2.83,2.83,0,0,0-.41-.11,1.73,1.73,0,0,0-.41,0,4.63,4.63,0,0,0-2.4.7,4.75,4.75,0,0,1-2.55.7,6.46,6.46,0,0,1-2.14,1.4c-.84.35-1.69.68-2.55,1a17.24,17.24,0,0,0-2.41,1.1,4.25,4.25,0,0,0-1.7,1.81c0,.39.08.64.37.73a.68.68,0,0,1,.44.74,5.35,5.35,0,0,1-.18,1.24,6.16,6.16,0,0,0-.19,1.46,15,15,0,0,0,.37,3.3c.25,1.07.5,2.17.74,3.29a1.17,1.17,0,0,0-.51.66,1.19,1.19,0,0,1-.52.66,19.6,19.6,0,0,1,1,6.29,22.71,22.71,0,0,1-.55,5,37.35,37.35,0,0,0-.78,5v.07a.59.59,0,0,0,.3.59.52.52,0,0,1,.29.51.82.82,0,0,1-.07.37c-.54,3.32-1.07,6.63-1.59,10s-.95,6.66-1.29,10h.59a5.58,5.58,0,0,0,3.44-1.14,12.45,12.45,0,0,0,2.55-2.52h1.18q5.32-4.62,10.24-9.53a117.54,117.54,0,0,0,9.36-10.55,1,1,0,0,0,.81-.3,1.39,1.39,0,0,1,.74-.44c1-1.41,2.12-2.82,3.25-4.21a44.72,44.72,0,0,1,3.7-4,3.2,3.2,0,0,1,.41-1.32,10.87,10.87,0,0,1,.7-1.1,8,8,0,0,0,.66-1.1,3,3,0,0,0,.3-1.39l.81-.33a2.75,2.75,0,0,0,.82-.55,4,4,0,0,1,.51-1.32,2.39,2.39,0,0,0,.37-1.32,2.56,2.56,0,0,0-.14-.73A4,4,0,0,0,291,41.26a10.93,10.93,0,0,0,1-2.6,21.81,21.81,0,0,0,.55-2.9A13.57,13.57,0,0,1,293.13,33.2Z" transform="translate(-8.96 -17.09)"/><path class="cls-1" d="M336,82.45a1.36,1.36,0,0,1-.6,1.21,1.23,1.23,0,0,0-.59,1.06,1.41,1.41,0,0,0,.3.73,1.48,1.48,0,0,0-1.41.66c-.24.44-.49.93-.74,1.46h-1a1.05,1.05,0,0,0-.59.15,1.52,1.52,0,0,0-.4.4,8.44,8.44,0,0,0-.49.77,11.69,11.69,0,0,0-2.69.91q-1.31.63-2.52,1.32c-.81.47-1.64.93-2.48,1.39a15.13,15.13,0,0,1-2.58,1.14,4.83,4.83,0,0,1-1.93,1.75h-.22a.76.76,0,0,1-.63-.11,1.05,1.05,0,0,0-.62-.18.5.5,0,0,0-.3.07,8.77,8.77,0,0,1-4.95,1.47,9,9,0,0,1-1.41-.11,7.91,7.91,0,0,0-1.41-.11.31.31,0,0,0-.29.14l-.15.3a2.29,2.29,0,0,1-.18.29c-.08.1-.26.15-.56.15a6.45,6.45,0,0,1-1.62-.22,4.08,4.08,0,0,0-1.71-.08,14.1,14.1,0,0,1-2.66-1.83,8.12,8.12,0,0,1-1.77-2.63,6.65,6.65,0,0,0-1-1.54,4.64,4.64,0,0,1-.92-1.61c-.05-.19-.13-.55-.23-1.06s-.19-1.06-.29-1.65-.19-1.14-.26-1.68a8.42,8.42,0,0,1-.11-1.1,12.22,12.22,0,0,1,.11-1.72c.07-.56.16-1.13.26-1.72q.43-2.77.63-5.6a18,18,0,0,1,1.22-5.45,8.44,8.44,0,0,1-.15-1.54V66.27a6.42,6.42,0,0,0-.37-2.34,4,4,0,0,0,.59-2.12,1.36,1.36,0,0,0-1.11-1.54v-.22a3,3,0,0,0-1-2.41,5.22,5.22,0,0,1,1.29-3.85,11.37,11.37,0,0,1,3.44-2.23.94.94,0,0,0,.22-.73c.34.1.67.19,1,.29a2.77,2.77,0,0,0,.89.15,4,4,0,0,0,1.33-.22,1.36,1.36,0,0,0,1.15,1.06,6.28,6.28,0,0,1,1.51.47v1a8.9,8.9,0,0,0,1.11,4.31,3.68,3.68,0,0,0-.37,1.25,10.91,10.91,0,0,0-.07,1.24c0,.59,0,1.17.07,1.76s.07,1.15.07,1.68a8.76,8.76,0,0,1-.18,1.76,3,3,0,0,1-.85,1.54c0,.63-.09,1.35-.11,2.16s-.08,1.62-.15,2.45a14.61,14.61,0,0,1-.41,2.41,4.84,4.84,0,0,1-.88,1.91c-.05.73-.09,1.47-.11,2.23s0,1.48,0,2.16c0,1.07.06,2.34.18,3.8a9.15,9.15,0,0,0,1,3.66,2.31,2.31,0,0,0,1.44.88,6.86,6.86,0,0,0,1.74.3,5.86,5.86,0,0,0,1.67-.26,2,2,0,0,0,1.22-.92.73.73,0,0,1,.59.44,1.22,1.22,0,0,0,.51.59q4.21-1.76,8.43-3.37a77.42,77.42,0,0,0,8.29-3.73,2.83,2.83,0,0,0,1.25.29,8.15,8.15,0,0,0,1.48-.14,7.43,7.43,0,0,1,1.48-.15h.52A2.24,2.24,0,0,1,336,82.45Z" transform="translate(-8.96 -17.09)"/><path class="cls-1" d="M390.51,95.92a2.88,2.88,0,0,1-.92,1.64,5.2,5.2,0,0,1-1.66,1,8.13,8.13,0,0,1-2,.48,17.66,17.66,0,0,1-1.82.11c-.24,0-.48,0-.7,0s-.45,0-.7,0a.33.33,0,0,0-.37.37.52.52,0,0,1-.37.51,4.15,4.15,0,0,0-.74-.22,3.71,3.71,0,0,0-.74-.07,6.54,6.54,0,0,0-1,.07,6,6,0,0,1-.92.07,1.78,1.78,0,0,1-.85-.14,2.28,2.28,0,0,1-.45-.33l-.37-.4a1.3,1.3,0,0,0-.55-.37,1,1,0,0,0-.85-.07c-.22.1-.55,0-1-.44A6.75,6.75,0,0,1,373,96.25c-.42-.71-.83-1.46-1.22-2.24s-.82-1.56-1.26-2.34a9.44,9.44,0,0,0-1.55-2h-.6a1.86,1.86,0,0,0-1.84,1.1,4.57,4.57,0,0,1-.74-.55,3.8,3.8,0,0,0-.82-.55,36.11,36.11,0,0,1-3.55.88,19.24,19.24,0,0,1-3.69.37h-1a3.46,3.46,0,0,1-1-.15,6.93,6.93,0,0,0-1.33.69,2.32,2.32,0,0,1-1.33.41,2.38,2.38,0,0,1-1-.3c-.29,0-.43.13-.4.37s-.14.37-.48.37h-.67c-.69,0-1.37,0-2,.07s-1.35.07-2,.07a12.14,12.14,0,0,1-2.88-.36,1.64,1.64,0,0,1-.81.22.9.9,0,0,0-.45.47c-.1.22-.2.42-.29.59a1.43,1.43,0,0,1-.41.44.92.92,0,0,1-.7.11,2.31,2.31,0,0,1-.74,1.39,1.89,1.89,0,0,0-.59,1.53,4.15,4.15,0,0,0-1.33,1.1c-.35.44-.7.91-1,1.39s-.7,1-1.07,1.39a3.9,3.9,0,0,1-1.37,1,1.69,1.69,0,0,0-.22,1.39,8.44,8.44,0,0,1-2,1.17,5.64,5.64,0,0,1-2.22.51,3,3,0,0,1-2.95-2.27,11,11,0,0,1,.11-1.57,10.2,10.2,0,0,1,.33-1.61,4.69,4.69,0,0,1,.66-1.39,2.6,2.6,0,0,1,1.26-.92,1,1,0,0,0-.44-.91.85.85,0,0,1-.37-.92,11.74,11.74,0,0,0,3.47-2.48,28.64,28.64,0,0,0,2.7-3.26L337.57,86a19.28,19.28,0,0,1,2.81-3.15V81.28A11.14,11.14,0,0,0,343.26,76a1.33,1.33,0,0,0,1.08-.74,3.42,3.42,0,0,0,.25-1.39.47.47,0,0,0,.49-.32c.07-.22.28-.29.62-.19a26,26,0,0,1,1.48-3.22c.54-1,1.09-2,1.63-3a28.33,28.33,0,0,0,1.44-3.11,16.81,16.81,0,0,0,.93-3.59,1.07,1.07,0,0,0,1.14-1c.08-.61.16-1.16.26-1.65a6.48,6.48,0,0,0,1.66-2.41c.37-.93.71-1.89,1-2.89s.63-2,1-3a8.38,8.38,0,0,1,1.59-2.67v-.22a.45.45,0,0,0-.3-.48.46.46,0,0,1-.29-.48.17.17,0,0,0,.07-.14,2.58,2.58,0,0,0,1.33-1.21A2.62,2.62,0,0,1,360,43.14a7.06,7.06,0,0,0,2.74,1.5,24,24,0,0,0,3.11.41,4,4,0,0,1,1.07,2.45,15.12,15.12,0,0,0,.48,2.82c.39,1.56.82,3.08,1.29,4.57a31.79,31.79,0,0,1,1.08,4.58,9.23,9.23,0,0,0,.81,2.63,9.9,9.9,0,0,1,.81,2.56,8.9,8.9,0,0,1,0,2.31,4,4,0,0,0,.3,2.23l.52,1.17a13.46,13.46,0,0,1,.62,1.68c.18.59.34,1.18.48,1.76.4,1.46.76,3,1.08,4.72a17.24,17.24,0,0,0,1.51,4.58,2,2,0,0,0,1.15,1,6.94,6.94,0,0,0,1.74.4,12,12,0,0,0,1.88.08c.62,0,1.15,0,1.59,0H383a2.77,2.77,0,0,1,.89.15,2.42,2.42,0,0,1,.29,1,1.72,1.72,0,0,1-.59,1.39A1.53,1.53,0,0,0,383,88.3a1.45,1.45,0,0,0,.3.81,4,4,0,0,0-.89-.07,9.81,9.81,0,0,0-3.33.58,6.27,6.27,0,0,0,1.59,2.09,23.56,23.56,0,0,0,2.11,1.57,2.45,2.45,0,0,1,1.55-.58,3.58,3.58,0,0,1,1.67.4,3.51,3.51,0,0,0,1.66.4,1.62,1.62,0,0,0,1-.22,6.85,6.85,0,0,1,1,1.35A5.41,5.41,0,0,0,390.51,95.92ZM367.37,84.2a4.84,4.84,0,0,0-.48-1.79,5.49,5.49,0,0,1-.56-1.35,12.44,12.44,0,0,1-.4-2.2,22.93,22.93,0,0,0-.34-2.27q-.51-2.49-1.14-5a36.53,36.53,0,0,0-1.59-4.84,1.51,1.51,0,0,0,.29-.8v-.22a4.48,4.48,0,0,1-1-1.79c-.19-.71-.38-1.42-.55-2.13a12.66,12.66,0,0,0-.67-2,3.45,3.45,0,0,0-1.29-1.5,2.19,2.19,0,0,0-.22,1,3.59,3.59,0,0,0,.11,1,4.12,4.12,0,0,1,.11.95,2.24,2.24,0,0,0-1.07,1.14,2.63,2.63,0,0,1-1.08,1.21,19.61,19.61,0,0,1-1.7,4.43c-.74,1.39-1.51,2.77-2.33,4.13s-1.58,2.75-2.32,4.14a22.85,22.85,0,0,0-1.78,4.35,3.19,3.19,0,0,0-1.29,1.69,6.33,6.33,0,0,0-.34,2,3.43,3.43,0,0,0,1.52.41l1.66,0a7.86,7.86,0,0,1,1.56.15,2.63,2.63,0,0,1,1.33.73,10.87,10.87,0,0,1,2.1-.4,3.88,3.88,0,0,0,1.89-.62,9.72,9.72,0,0,0,3.18.51,10.05,10.05,0,0,0,1.74-.15c.56-.09,1.12-.22,1.66-.36a2.28,2.28,0,0,1,1,.47,1.39,1.39,0,0,0,1.11.26,1.18,1.18,0,0,0,.44-.62A1.3,1.3,0,0,1,367.37,84.2Z" transform="translate(-8.96 -17.09)"/><path class="cls-1" d="M445.38,88.08a1.81,1.81,0,0,1-.41,1.21,4.33,4.33,0,0,1-1,.84,10.79,10.79,0,0,1-1.11.66,4.5,4.5,0,0,0-1,.73,1.59,1.59,0,0,0-.4.7.83.83,0,0,1-.41.55,2,2,0,0,1-1,.44l-1.07.18a7.31,7.31,0,0,0-1.07.29,1.88,1.88,0,0,0-.89.7q-3.48.36-6.84,1a40.39,40.39,0,0,1-6.92.59,9.43,9.43,0,0,0-1.44.11l-1.44.18c-1,.1-2.06.17-3.07.22s-2,.07-3.07.07c-1.43,0-2.86-.06-4.28-.18a34.31,34.31,0,0,1-4.22-.62,4.5,4.5,0,0,0-1.18-.59l-1.37-.44a10.35,10.35,0,0,1-1.3-.51,1.92,1.92,0,0,1-.88-.88,5.76,5.76,0,0,1-2-.44,8.46,8.46,0,0,1-1.55-.84l-1.45-1a8.22,8.22,0,0,0-1.7-.88c-.49-.68-1-1.35-1.51-2A6.82,6.82,0,0,0,391,86.47a16.89,16.89,0,0,0-.7-2.78c-.32-.92-.64-1.84-1-2.74s-.59-1.82-.82-2.75a12.27,12.27,0,0,1-.33-2.85,12.8,12.8,0,0,1,.3-2.49,25.84,25.84,0,0,1,.77-3,19.79,19.79,0,0,1,1.15-2.82A11.62,11.62,0,0,1,391.77,65a2.18,2.18,0,0,1,.52-.36,1.53,1.53,0,0,0,.52-.44,7.1,7.1,0,0,1,1.4-1.21,16.2,16.2,0,0,0,1.55-1.13,2.53,2.53,0,0,0,.48-.66,2.15,2.15,0,0,1,.56-.66.84.84,0,0,1,.63-.07.85.85,0,0,0,.7-.15.64.64,0,0,0,.3-.51.67.67,0,0,1,.22-.51c.05,0,.19-.06.44,0l.45,0a1.86,1.86,0,0,0,1.18-.7,4.24,4.24,0,0,1,1.11-.91,3.69,3.69,0,0,1,1-.41,4.28,4.28,0,0,0,1.11-.4,10.87,10.87,0,0,1,1.59-.7,14.44,14.44,0,0,0,1.59-.62A1.85,1.85,0,0,0,408,55a2.46,2.46,0,0,1,.74-.51,7.89,7.89,0,0,1,1.45-.33l1.48-.22c.46-.07.93-.17,1.4-.29a3.26,3.26,0,0,0,1.29-.7h.6a9,9,0,0,0,2.58-.37,9.36,9.36,0,0,1,2.59-.36,6.08,6.08,0,0,1,1.11.15,2.42,2.42,0,0,1,1.33-.37,5.71,5.71,0,0,1,2.52.62,5.66,5.66,0,0,0,2.58.62h.45a2.44,2.44,0,0,0,.59-.07,2.94,2.94,0,0,0,2,.88,3.73,3.73,0,0,1,2,.66,3.79,3.79,0,0,1,.85,1A7.4,7.4,0,0,1,434,57l.45,1.31a4.21,4.21,0,0,0,.59,1.18,6.59,6.59,0,0,1-2.18,4.2,6.7,6.7,0,0,1-4.55,1.58,5.15,5.15,0,0,1-1.74-.26,9.33,9.33,0,0,1-1.26-.55l-1.14-.58a5.33,5.33,0,0,0-1.33-.44,8.92,8.92,0,0,0,1-3.15,7.22,7.22,0,0,0-1.62-.51,6,6,0,0,1-1.56-.51,25.36,25.36,0,0,1-3.88.69,6.28,6.28,0,0,0-3.51,1.57l-.78-.14a4.29,4.29,0,0,0-.77-.08,5.56,5.56,0,0,0-1.78.63c-.89.41-1.84.89-2.85,1.42s-2,1.08-2.88,1.61-1.54.91-1.89,1.1a4.84,4.84,0,0,0-1,.88c-.3.34-.59.7-.89,1.06s-.59.71-.88,1a2.65,2.65,0,0,1-1.11.69,4,4,0,0,1-.52,1.39c-.25.39-.52.81-.82,1.25,0,.88-.13,1.75-.25,2.63a18,18,0,0,0-.19,2.64v.95a2.07,2.07,0,0,0,.15.8A9.29,9.29,0,0,1,398,81.5a2.78,2.78,0,0,0,1.66,1.61q.07.28,0,.36a.6.6,0,0,0-.19.37,3.66,3.66,0,0,0,1.15,1.28l1.44.95c.49.32,1,.65,1.4,1a3.4,3.4,0,0,1,1,1.32,6.2,6.2,0,0,1,2.11.36c.66.25,1.3.51,1.92.81s1.21.56,1.77.8a4.29,4.29,0,0,0,1.74.37,4.6,4.6,0,0,0,1.48-.22,24,24,0,0,0,3.88.84,30.74,30.74,0,0,0,4,.26,40.08,40.08,0,0,0,4.88-.3c1.63-.19,3.25-.36,4.88-.51a10.16,10.16,0,0,1,1.7-.14,9.07,9.07,0,0,0,1.63-.15,3.78,3.78,0,0,0,2-1,6.44,6.44,0,0,1,1.81-1.17,3.53,3.53,0,0,0,1.92.51,7.47,7.47,0,0,0,2.44-.4,7.48,7.48,0,0,1,2.44-.41Z" transform="translate(-8.96 -17.09)"/><path class="cls-1" d="M491.59,54.71V55a.68.68,0,0,0-.51.73,7.85,7.85,0,0,1-1.7.55,8.33,8.33,0,0,0-1.71.55c-.54,0-1.09-.08-1.66-.11s-1.12,0-1.66,0q-2.22,0-4.44.15a32.89,32.89,0,0,1-4.44,0,9.75,9.75,0,0,1-2.25.92,9.32,9.32,0,0,1-2.33.32,4.83,4.83,0,0,1-1.55-.22,22,22,0,0,1-3.88,1.47c-1.41.39-2.83.77-4.26,1.13s-2.8.78-4.1,1.25a10.93,10.93,0,0,0-3.44,1.94c-.1.68-.17,1.35-.22,2s-.07,1.31-.07,1.94a14.09,14.09,0,0,0,.11,1.9,6.42,6.42,0,0,0,.48,1.76,3.76,3.76,0,0,0,.85.22,5.48,5.48,0,0,0,.85.07,2.42,2.42,0,0,0,.74-.11.77.77,0,0,0,.51-.47,12.71,12.71,0,0,1,2.22-.11q1.11,0,2.22,0c.74,0,1.47,0,2.18-.07a10,10,0,0,0,2.11-.37,13.72,13.72,0,0,1,2.33-.36l2.25-.15c.74-.05,1.51-.13,2.3-.25a9.52,9.52,0,0,0,2.44-.77,5.53,5.53,0,0,0,2,.36,12.84,12.84,0,0,1,2,.15,4.08,4.08,0,0,1,.85.8,1.69,1.69,0,0,1,.33,1,3.51,3.51,0,0,1-.74,2,14.2,14.2,0,0,0-1.18,1.9h-.82a12.37,12.37,0,0,0-3.44.48c-1.1.32-2.21.68-3.32,1.1s-2.22.78-3.33,1.09a12.37,12.37,0,0,1-3.44.48q-.3,0-.33.33a.76.76,0,0,1-.19.47,7.12,7.12,0,0,0-1.11-.07,13.84,13.84,0,0,0-3.25.37,14,14,0,0,1-3.18.36l-.89,0c-.29,0-.59-.06-.88-.11a1.79,1.79,0,0,1-1,.77,2.92,2.92,0,0,0-1.11.62,5.53,5.53,0,0,0-.26,1.61c0,.63-.05,1.28-.08,1.94a13.33,13.33,0,0,1-.18,1.86,2.82,2.82,0,0,1-.59,1.39c.05.25.24.33.59.26s.52.09.52.48a6.94,6.94,0,0,1-.15,1.39,7.24,7.24,0,0,0-.15,1.46,15.56,15.56,0,0,0,.33,3,11.85,11.85,0,0,0,1,3,6.71,6.71,0,0,0,1.88,2.3,4.71,4.71,0,0,0,3,.92,5.67,5.67,0,0,0,2.22-.44,3.76,3.76,0,0,0,1.7-1.47l.37-.07a2.36,2.36,0,0,1,.55.07,2,2,0,0,0,.56.08,2.13,2.13,0,0,0,1.15-.55c.46-.37,1-.79,1.55-1.28s1.14-1,1.74-1.43a6.32,6.32,0,0,1,1.7-1c.34-.68.67-1.36,1-2A3.77,3.77,0,0,1,471.78,91V88.89a11.52,11.52,0,0,1,1.59-1.46,4.18,4.18,0,0,0,1.29-1.69,4.63,4.63,0,0,0,.7.22,3.23,3.23,0,0,0,.71.07,4.24,4.24,0,0,0,.77-.07,4.1,4.1,0,0,0,.78-.22,6.65,6.65,0,0,1,.92,1.8,10.11,10.11,0,0,0,.85,1.86c-.44.88-1,1.93-1.55,3.15s-1.23,2.44-1.92,3.66-1.42,2.38-2.18,3.48a12,12,0,0,1-2.26,2.52,3,3,0,0,1-1,.51c-.54.39-1,.77-1.48,1.14a9,9,0,0,0-1.26,1.28,21.17,21.17,0,0,0-4.1,1.75c-1.31.74-2.6,1.44-3.88,2.13a7.78,7.78,0,0,0-1.92-.22,13.19,13.19,0,0,0-1.78.11,16.3,16.3,0,0,1-1.92.11,1.36,1.36,0,0,0-.85-.48c-.37-.07-.51-.33-.41-.77a7.24,7.24,0,0,1-4.07-1.35,10.88,10.88,0,0,1-2.62-3,17.77,17.77,0,0,1-1.74-3.8c-.44-1.37-.91-2.68-1.4-4v-.22a.39.39,0,0,1,.29-.44.4.4,0,0,0,.3-.44.29.29,0,0,0-.08-.22c-.14-.54-.27-1-.37-1.39a6.27,6.27,0,0,1-.14-1.39,19.62,19.62,0,0,1,.14-2.31,17.42,17.42,0,0,0,.15-2.3,6.63,6.63,0,0,0-.29-2,3,3,0,0,0,.48-1,7.85,7.85,0,0,0,.26-1.28c.05-.44.08-.88.11-1.32a5,5,0,0,1,.18-1.17l-.52-1.43a4.66,4.66,0,0,1-.22-1.5v-.51a17.35,17.35,0,0,0,1.26-2.56c.34-.88.71-1.78,1.11-2.71v-.22c0-1.42-.05-2.83-.15-4.25s-.15-2.83-.15-4.24V61.37a12.24,12.24,0,0,1,.08-1.39,2,2,0,0,0,.88-.81,2,2,0,0,1,.89-.8h2.44l.45-.73a2.53,2.53,0,0,0,.29-.81,8.18,8.18,0,0,0,1.59-.62,16.09,16.09,0,0,0,1.44-.84l1.89-1.06a12.51,12.51,0,0,1,1.7-.81,13.67,13.67,0,0,1,1.81-.55,20.47,20.47,0,0,1,2.22-.37,1.07,1.07,0,0,0,.78-.21,3.56,3.56,0,0,1,.55-.52c.59.1,1.18.19,1.77.26a15.32,15.32,0,0,0,1.78.11,8.46,8.46,0,0,0,3.33-.66c1.48,0,2.94,0,4.4-.07s2.92-.08,4.4-.08q1.92,0,3.84.15a33.2,33.2,0,0,1,3.77.51,4.94,4.94,0,0,1,1.48-.22A9.44,9.44,0,0,1,489,52a5,5,0,0,0,1.81,0,3.2,3.2,0,0,0,.41,1.36A2.41,2.41,0,0,1,491.59,54.71Z" transform="translate(-8.96 -17.09)"/></svg>